# xmcd
#
# Track frame offsets:
#	150
#	21432
#	37852
#	53957
#	74317
#	96142
#	121222
#	132885
#	146900
#	159145
#	175620
#	190117
#	200942
#	215352
#	237550
#
# Disc length: 3496 seconds
#
# Revision: 0
# Processed by: cddbd v1.4PL0 Copyright (c) Steve Scherf et al.
# Submitted via: EasyCDDAExtractor 5.0.5.1
#
DISCID=d70da60f
DTITLE=Newell Oler - Country Boy City Boy
DYEAR=1998
DGENRE=Country
TTITLE0=Blue Eyes Crying In The Rain and Rhythm Of The Rain Medley
TTITLE1=After The Lovin'
TTITLE2=She Wears My Ring
TTITLE3=You Were Always On My Mind
TTITLE4=The Green Green Grass Of Home
TTITLE5=Welcome To My World and I Fall To Pieces ( Jim Reeves Medley)
TTITLE6=Red River Valley
TTITLE7=Funny How Time Slips Away
TTITLE8=You Don't Know Me
TTITLE9=Help Me Make It Through The Night
TTITLE10=Mr. Lonely
TTITLE11=All Of Me
TTITLE12=Release Me
TTITLE13=For The Good Times
TTITLE14=Sometimes When We Touch
EXTD=
EXTT0=
EXTT1=
EXTT2=
EXTT3=
EXTT4=
EXTT5=
EXTT6=
EXTT7=
EXTT8=
EXTT9=
EXTT10=
EXTT11=
EXTT12=
EXTT13=
EXTT14=
PLAYORDER=
